# xmcd
#
# Track frame offsets:
#	150
#	13180
#	25872
#	45552
#	66870
#	77972
#	96145
#	110100
#	125325
#	148235
#	162937
#	174647
#
# Disc length: 2563 seconds
#
# Revision: 2
# Processed by: cddbd v1.5.2PL0 Copyright (c) Steve Scherf et al.
# Submitted via: EasyCDDAExtractor 15.3.0.1
#
DISCID=a60a010c
DTITLE=Alejandra Guzman - Jugo De Exitos - CD 1
DYEAR=1998
DGENRE=Latin
TTITLE0=La Plaga
TTITLE1=Popotitos
TTITLE2=Eternamente Bella
TTITLE3=Hacer El Amor Con Otro
TTITLE4=No Seas Cruel
TTITLE5=Güera
TTITLE6=Luz De Luna
TTITLE7=Sherif
TTITLE8=Rosas Rojas
TTITLE9=Bello Imposible
TTITLE10=Soy Tuya Mi Amor
TTITLE11=Un Grito En La Noche
EXTD=\n\nYEAR: 1998  ID3G:  86
EXTT0=
EXTT1=
EXTT2=
EXTT3=
EXTT4=
EXTT5=
EXTT6=
EXTT7=
EXTT8=
EXTT9=
EXTT10=
EXTT11=
PLAYORDER=
